# xmcd
#
# Track frame offsets: 
#        150
#        12863
#        27060
#        42169
#        56747
#        74531
#        92973
#        109681
#        125506
#        136964
#        151241
#        168051
#        184248
#
# Disc length: 2780 seconds
#
# Revision: 0
# Processed by: cddbd v1.5.2PL0 Copyright (c) Steve Scherf et al.
# Submitted via: ExactAudioCopy v1.3
#
DISCID=a80ada0d
DTITLE=Eliza Neals - Messin With A Fool
DYEAR=2012
DGENRE=Blues Rock
TTITLE0=Misery
TTITLE1=Man's Man
TTITLE2=Shame
TTITLE3=Esp
TTITLE4=In Charge
TTITLE5=Rather Go To Jail
TTITLE6=Rainin In Detroit
TTITLE7=Living with yo Mama
TTITLE8=Been A Long Time
TTITLE9=Money
TTITLE10=Can't Stop (No No)
TTITLE11=Pig
TTITLE12=Love Hurts More
EXTD=
EXTT0=
EXTT1=
EXTT2=
EXTT3=
EXTT4=
EXTT5=
EXTT6=
EXTT7=
EXTT8=
EXTT9=
EXTT10=
EXTT11=
EXTT12=
PLAYORDER=
